<svg width="17" height="17" viewBox="0 0 17 17" fill="none" xmlns="http://www.w3.org/2000/svg">
<path d="M13.8459 9.36898C13.7801 9.10592 13.5135 8.94598 13.2505 9.01175L10.632 9.66637C10.3689 9.73213 10.209 9.9987 10.2748 10.2618C10.3405 10.5248 10.6071 10.6847 10.8701 10.619L13.4886 9.96436C13.7517 9.8986 13.9116 9.63203 13.8459 9.36898Z" fill="#4F7BF4"/>
<path d="M13.8605 4.57838C13.8605 4.30723 13.6407 4.08741 13.3696 4.08741C13.0984 4.08741 12.8786 4.30723 12.8786 4.57838V6.82936L12.3881 6.59636L12.3823 6.59345C12.3502 6.57705 12.215 6.50793 12.0603 6.50793C11.9056 6.50793 11.7704 6.57705 11.7383 6.59345L11.7326 6.59636L11.242 6.82936V5.5276C11.242 5.25644 11.0222 5.03663 10.7511 5.03663C10.4799 5.03663 10.2601 5.25644 10.2601 5.5276L10.2601 7.22123C10.26 7.29403 10.2598 7.39783 10.2738 7.48694C10.2908 7.59588 10.3468 7.80619 10.5646 7.93405C10.7743 8.05719 10.9794 8.01146 11.0769 7.98115C11.1619 7.95473 11.2551 7.91033 11.3246 7.87723L12.0603 7.52775L12.796 7.87722C12.8655 7.91033 12.9587 7.95473 13.0437 7.98115C13.1412 8.01146 13.3463 8.05719 13.5561 7.93405C13.7738 7.80619 13.8298 7.59588 13.8469 7.48694C13.8608 7.39783 13.8607 7.29404 13.8605 7.22123L13.8605 4.57838Z" fill="#4F7BF4"/>
<path d="M3.72853 6.75048C3.79429 6.48743 4.06086 6.32749 4.32391 6.39325L6.94241 7.04788C7.20546 7.11364 7.3654 7.3802 7.29964 7.64326C7.23387 7.90632 6.96731 8.06626 6.70425 8.00049L4.08576 7.34587C3.8227 7.28011 3.66276 7.01354 3.72853 6.75048Z" fill="#4F7BF4"/>
<path d="M4.32391 9.01175C4.06086 8.94598 3.79429 9.10592 3.72853 9.36898C3.66276 9.63203 3.8227 9.8986 4.08576 9.96436L6.70425 10.619C6.96731 10.6847 7.23387 10.5248 7.29964 10.2618C7.3654 9.9987 7.20546 9.73213 6.94241 9.66637L4.32391 9.01175Z" fill="#4F7BF4"/>
<path fill-rule="evenodd" clip-rule="evenodd" d="M15.8244 4.20734C15.8244 3.24942 15.0616 2.42791 14.0608 2.46277C13.3156 2.48873 12.3415 2.56625 11.5922 2.79057C10.9408 2.98558 10.2082 3.36646 9.637 3.69701C9.10147 4.00695 8.43479 4.02241 7.89222 3.73552C7.24056 3.39093 6.3832 2.98248 5.63935 2.7862C5.01038 2.62022 4.21477 2.5405 3.56881 2.5008C2.54875 2.43811 1.75 3.26825 1.75 4.24963V11.5459C1.75 12.5516 2.56421 13.3367 3.52929 13.397C4.15692 13.4363 4.86317 13.5118 5.38881 13.6505C6.03857 13.822 6.84205 14.2032 7.49079 14.549C8.29814 14.9794 9.27625 14.9794 10.0836 14.549C10.7323 14.2032 11.5358 13.822 12.1856 13.6505C12.7112 13.5118 13.4175 13.4363 14.0451 13.397C15.0102 13.3367 15.8244 12.5516 15.8244 11.5459V4.20734ZM14.0949 3.44411C14.4974 3.43009 14.8425 3.76115 14.8425 4.20734V11.5459C14.8425 11.9948 14.4704 12.3866 13.9838 12.417C13.3422 12.4571 12.5572 12.5369 11.935 12.7011C11.1689 12.9032 10.2815 13.3308 9.6217 13.6825C9.51157 13.7412 9.39633 13.7874 9.27817 13.8212V4.86775C9.57426 4.80848 9.86215 4.70124 10.1289 4.54688C10.6856 4.22468 11.3369 3.892 11.8738 3.73126C12.4951 3.54525 13.3625 3.46962 14.0949 3.44411ZM8.29623 4.88931C7.99837 4.84299 7.70641 4.74802 7.43322 4.60357C6.79378 4.26545 6.01864 3.90183 5.38881 3.73563C4.85712 3.59533 4.14093 3.51975 3.50858 3.48089C3.09357 3.45538 2.73193 3.79324 2.73193 4.24963V11.5459C2.73193 11.9948 3.10396 12.3866 3.59059 12.417C4.23217 12.4571 5.01717 12.5369 5.63935 12.7011C6.40549 12.9032 7.29287 13.3308 7.95269 13.6825C8.06283 13.7412 8.17806 13.7874 8.29623 13.8212V4.88931Z" fill="#4F7BF4"/>
</svg>
