<svg width="17" height="17" viewBox="0 0 17 17" fill="none" xmlns="http://www.w3.org/2000/svg">
<path d="M11.8806 10.1426C12.2422 10.1426 12.5352 9.84955 12.5352 9.48801C12.5352 9.12648 12.2422 8.83339 11.8806 8.83339C11.5191 8.83339 11.226 9.12648 11.226 9.48801C11.226 9.84955 11.5191 10.1426 11.8806 10.1426Z" fill="#4F7BF4"/>
<path d="M11.8806 12.7611C12.2422 12.7611 12.5352 12.468 12.5352 12.1065C12.5352 11.745 12.2422 11.4519 11.8806 11.4519C11.5191 11.4519 11.226 11.745 11.226 12.1065C11.226 12.468 11.5191 12.7611 11.8806 12.7611Z" fill="#4F7BF4"/>
<path d="M9.26213 9.48801C9.26213 9.84955 8.96905 10.1426 8.60751 10.1426C8.24597 10.1426 7.95289 9.84955 7.95289 9.48801C7.95289 9.12648 8.24597 8.83339 8.60751 8.83339C8.96905 8.83339 9.26213 9.12648 9.26213 9.48801Z" fill="#4F7BF4"/>
<path d="M9.26213 12.1065C9.26213 12.468 8.96905 12.7611 8.60751 12.7611C8.24597 12.7611 7.95289 12.468 7.95289 12.1065C7.95289 11.745 8.24597 11.4519 8.60751 11.4519C8.96905 11.4519 9.26213 11.745 9.26213 12.1065Z" fill="#4F7BF4"/>
<path d="M5.3344 10.1426C5.69593 10.1426 5.98902 9.84955 5.98902 9.48801C5.98902 9.12648 5.69593 8.83339 5.3344 8.83339C4.97286 8.83339 4.67977 9.12648 4.67977 9.48801C4.67977 9.84955 4.97286 10.1426 5.3344 10.1426Z" fill="#4F7BF4"/>
<path d="M5.3344 12.7611C5.69593 12.7611 5.98902 12.468 5.98902 12.1065C5.98902 11.745 5.69593 11.4519 5.3344 11.4519C4.97286 11.4519 4.67977 11.745 4.67977 12.1065C4.67977 12.468 4.97286 12.7611 5.3344 12.7611Z" fill="#4F7BF4"/>
<path fill-rule="evenodd" clip-rule="evenodd" d="M5.3344 2.1235C5.60555 2.1235 5.82536 2.34332 5.82536 2.61447V3.11377C6.25872 3.10543 6.73616 3.10543 7.26125 3.10544H9.95369C10.4788 3.10543 10.9563 3.10543 11.3897 3.11377V2.61447C11.3897 2.34332 11.6095 2.1235 11.8806 2.1235C12.1518 2.1235 12.3716 2.34332 12.3716 2.61447V3.1559C12.5418 3.16888 12.7029 3.18518 12.8554 3.20568C13.6229 3.30887 14.2441 3.52628 14.734 4.01618C15.2239 4.50608 15.4413 5.12728 15.5445 5.89477C15.6447 6.64052 15.6447 7.59341 15.6447 8.79643V10.1796C15.6447 11.3826 15.6447 12.3355 15.5445 13.0813C15.4413 13.8488 15.2239 14.47 14.734 14.9598C14.2441 15.4497 13.6229 15.6672 12.8554 15.7703C12.1096 15.8706 11.1567 15.8706 9.95372 15.8706H7.26134C6.05831 15.8706 5.1054 15.8706 4.35965 15.7703C3.59215 15.6672 2.97095 15.4497 2.48105 14.9598C1.99116 14.47 1.77375 13.8488 1.67056 13.0813C1.57029 12.3355 1.5703 11.3826 1.57031 10.1796V8.79646C1.5703 7.59342 1.57029 6.64053 1.67056 5.89477C1.77375 5.12728 1.99116 4.50608 2.48105 4.01618C2.97095 3.52628 3.59215 3.30887 4.35965 3.20568C4.51213 3.18518 4.67326 3.16888 4.84343 3.1559V2.61447C4.84343 2.34332 5.06324 2.1235 5.3344 2.1235ZM4.49049 4.17886C3.83188 4.26741 3.45243 4.43347 3.17539 4.71051C2.89834 4.98755 2.73228 5.367 2.64374 6.02561C2.62874 6.13715 2.6162 6.25458 2.60572 6.37855H14.6093C14.5988 6.25458 14.5863 6.13715 14.5713 6.02561C14.4827 5.367 14.3167 4.98755 14.0396 4.71051C13.7626 4.43347 13.3831 4.26741 12.7245 4.17886C12.0518 4.08842 11.165 4.08737 9.91676 4.08737H7.29826C6.05002 4.08737 5.16322 4.08842 4.49049 4.17886ZM2.55225 8.83339C2.55225 8.27433 2.55246 7.78778 2.56081 7.36049H14.6542C14.6626 7.78778 14.6628 8.27433 14.6628 8.83339V10.1426C14.6628 11.3909 14.6617 12.2777 14.5713 12.9504C14.4827 13.609 14.3167 13.9885 14.0396 14.2655C13.7626 14.5426 13.3831 14.7086 12.7245 14.7972C12.0518 14.8876 11.165 14.8887 9.91676 14.8887H7.29826C6.05002 14.8887 5.16322 14.8876 4.49049 14.7972C3.83188 14.7086 3.45243 14.5426 3.17539 14.2655C2.89834 13.9885 2.73228 13.609 2.64374 12.9504C2.55329 12.2777 2.55225 11.3909 2.55225 10.1426V8.83339Z" fill="#4F7BF4"/>
</svg>
