<svg width="15" height="16" viewBox="0 0 15 16" fill="none" xmlns="http://www.w3.org/2000/svg">
<g clip-path="url(#clip0_175_963)">
<path fill-rule="evenodd" clip-rule="evenodd" d="M7.44894 2.15653C4.31372 2.15653 1.77213 4.69812 1.77213 7.83333C1.77213 10.9685 4.31372 13.5101 7.44894 13.5101C10.5842 13.5101 13.1257 10.9685 13.1257 7.83333C13.1257 4.69812 10.5842 2.15653 7.44894 2.15653ZM0.851562 7.83333C0.851562 4.18971 3.80531 1.23596 7.44894 1.23596C11.0926 1.23596 14.0463 4.18971 14.0463 7.83333C14.0463 11.477 11.0926 14.4307 7.44894 14.4307C3.80531 14.4307 0.851562 11.477 0.851562 7.83333ZM7.44894 4.91822C7.70314 4.91822 7.90922 5.12429 7.90922 5.3785V7.64268L9.30868 9.04214C9.48843 9.22189 9.48843 9.51332 9.30868 9.69308C9.12893 9.87283 8.83749 9.87283 8.65774 9.69308L7.12347 8.1588C7.03715 8.07248 6.98865 7.95541 6.98865 7.83333V5.3785C6.98865 5.12429 7.19473 4.91822 7.44894 4.91822Z" fill="#4F7BF4"/>
</g>
<defs>
<clipPath id="clip0_175_963">
<rect width="14.729" height="14.729" fill="white" transform="translate(0.0859375 0.468872)"/>
</clipPath>
</defs>
</svg>
