<svg width="118" height="18" viewBox="0 0 118 18" fill="none" xmlns="http://www.w3.org/2000/svg">
<g clip-path="url(#clip0_92_977)">
<path d="M0.09375 8.98753C0.09375 4.41746 3.82957 0.746912 8.50061 0.746912C9.90507 0.737068 11.2899 1.07683 12.5303 1.73559C13.7707 2.39434 14.8278 3.35138 15.6061 4.52046L12.1038 6.55206C11.6986 5.97298 11.1592 5.50058 10.5318 5.17522C9.9043 4.84985 9.20741 4.68119 8.50061 4.68364C6.0988 4.68364 4.13043 6.68567 4.13043 8.98753C4.13043 11.2894 6.0988 13.2914 8.50061 13.2914C9.24074 13.2962 9.96974 13.1113 10.618 12.7542C11.2663 12.3971 11.8123 11.8798 12.2038 11.2517L15.6714 13.32C14.9025 14.5233 13.8415 15.5123 12.5873 16.195C11.3331 16.8776 9.92651 17.2317 8.49857 17.2241C3.82957 17.2282 0.09375 13.4872 0.09375 8.98753Z" fill="#2668B8"/>
<path d="M16.3867 8.98761C16.3867 4.45016 20.1225 0.78064 24.7936 0.78064C29.4973 0.78064 33.2341 4.4522 33.2341 8.98761C33.2341 13.4914 29.4973 17.2282 24.7936 17.2282C20.1225 17.2282 16.3867 13.4873 16.3867 8.98761ZM29.1974 8.98761C29.1974 6.7194 27.2291 4.71737 24.7936 4.71737C22.3918 4.71737 20.4234 6.7194 20.4234 8.98761C20.4234 11.2895 22.3918 13.2915 24.7936 13.2915C27.2331 13.2915 29.1974 11.2895 29.1974 8.98761Z" fill="#0056D2"/>
<path d="M101.156 9.12121C101.156 4.15032 105.193 0.78064 108.863 0.78064C111.365 0.78064 112.8 1.54759 113.767 3.01621L114.152 1.07844H117.904V16.9274H114.152L113.667 15.2956C112.567 16.497 111.198 17.2333 108.863 17.2333C105.26 17.2282 101.156 14.0584 101.156 9.12121ZM113.967 9.08755C113.962 7.92445 113.496 6.81076 112.671 5.99148C111.845 5.1722 110.728 4.71444 109.565 4.7189C108.402 4.72336 107.288 5.18969 106.469 6.01528C105.649 6.84087 105.192 7.95811 105.196 9.12121C105.196 11.3231 107.164 13.2915 109.567 13.2915C112 13.2915 113.967 11.3231 113.967 9.08755Z" fill="#0056D2"/>
<path d="M96.5444 2.91525V1.07947H92.4414V16.9274H96.5444V8.38793C96.5444 5.81885 97.8131 4.48485 100.012 4.48485C100.158 4.48485 100.297 4.49505 100.432 4.50831L101.193 0.682739C99.0543 0.693958 97.5041 1.42725 96.5444 2.91525Z" fill="#0056D2"/>
<path d="M55.3178 2.91626V1.08048L51.2148 1.08966L51.2495 16.9355L55.3525 16.9263L55.3301 8.38791C55.3239 5.81986 56.5896 4.4828 58.7905 4.4777C58.9309 4.47811 59.0711 4.48594 59.2107 4.50115L59.9674 0.671509C57.8257 0.688847 56.2734 1.4252 55.3178 2.91626Z" fill="#0056D2"/>
<path d="M34.6484 10.7888V1.08057H38.7504V10.2891C38.7504 12.3237 39.8845 13.5251 41.8529 13.5251C44.0548 13.5251 45.3204 12.1901 45.3204 9.62103V1.08057H49.4244V16.9274H45.3235V15.0917C44.3567 16.5929 42.7881 17.3272 40.6198 17.3272C36.9503 17.3283 34.6484 14.6592 34.6484 10.7888Z" fill="#0056D2"/>
<path d="M74.6094 9.00598C74.6186 4.56849 77.7945 0.771477 82.8317 0.780656C87.5027 0.789835 90.7979 4.53177 90.7867 8.93969C90.7875 9.3755 90.7534 9.81068 90.6847 10.2411L78.6083 10.2186C79.0714 12.1207 80.6369 13.4914 83.006 13.4965C84.44 13.4965 85.9759 12.9682 86.9122 11.7688L89.7107 14.0126C88.2717 16.0452 85.7332 17.2415 83.0326 17.2364C78.2646 17.2201 74.6012 13.6434 74.6094 9.00598ZM86.6562 7.3599C86.4257 5.75869 84.7602 4.52055 82.7919 4.51749C80.8898 4.51749 79.3539 5.64548 78.7501 7.34562L86.6562 7.3599Z" fill="#0056D2"/>
<path d="M59.9922 13.4729L63.6393 11.5637C64.242 12.8702 65.4475 13.6402 67.1558 13.6402C68.7295 13.6402 69.3322 13.1384 69.3322 12.4347C69.3322 9.88499 60.6928 11.4301 60.6928 5.6015C60.6928 2.38684 63.5057 0.679565 66.9875 0.679565C69.6331 0.679565 71.9768 1.85141 73.2496 4.02783L69.6351 5.9401C69.0997 4.86821 68.0951 4.26546 66.8223 4.26546C65.5842 4.26546 64.9804 4.70095 64.9804 5.4373C64.9804 7.91561 73.6198 6.34193 73.6198 12.2705C73.6198 15.3515 71.1089 17.2261 67.0569 17.2261C63.6077 17.223 61.1967 16.0848 59.9922 13.4729Z" fill="#0056D2"/>
<path d="M0.0898438 8.98753C0.0898438 4.41746 3.82566 0.746912 8.49671 0.746912C9.90116 0.737068 11.286 1.07683 12.5264 1.73559C13.7668 2.39434 14.8238 3.35138 15.6022 4.52046L12.0999 6.55206C11.6947 5.97298 11.1553 5.50058 10.5278 5.17522C9.90039 4.84985 9.2035 4.68119 8.49671 4.68364C6.09489 4.68364 4.12653 6.68567 4.12653 8.98753C4.12653 11.2894 6.09489 13.2914 8.49671 13.2914C9.23683 13.2962 9.96584 13.1113 10.6141 12.7542C11.2624 12.3971 11.8084 11.8798 12.1999 11.2517L15.6675 13.32C14.8986 14.5233 13.8376 15.5123 12.5834 16.195C11.3292 16.8776 9.9226 17.2317 8.49467 17.2241C3.82566 17.2282 0.0898438 13.4872 0.0898438 8.98753Z" fill="#0056D2"/>
</g>
<defs>
<clipPath id="clip0_92_977">
<rect width="118" height="16.726" fill="white" transform="translate(0 0.636963)"/>
</clipPath>
</defs>
</svg>
