<svg width="40" height="40" viewBox="0 0 40 40" fill="none" xmlns="http://www.w3.org/2000/svg">
<path fill-rule="evenodd" clip-rule="evenodd" d="M21.9131 9.55602C22.0197 9.28205 22.0782 8.98404 22.0782 8.67236C22.0782 7.32617 20.9869 6.23486 19.6407 6.23486C18.2945 6.23486 17.2032 7.32617 17.2032 8.67236C17.2032 8.98398 17.2617 9.28195 17.3682 9.55588L10.0697 16.4251C9.67391 16.1476 9.19191 15.9848 8.67188 15.9848C7.32568 15.9848 6.23438 17.0761 6.23438 18.4223C6.23438 19.7685 7.32568 20.8598 8.67188 20.8598C10.0181 20.8598 11.1094 19.7685 11.1094 18.4223C11.1094 18.2757 11.0964 18.1321 11.0716 17.9926L18.6212 10.8871C18.9314 11.0301 19.2767 11.1099 19.6407 11.1099C20.0046 11.1099 20.3499 11.0301 20.66 10.8871L27.3123 17.1481C27.0845 17.5189 26.9531 17.9552 26.9531 18.4223C26.9531 19.7685 28.0444 20.8598 29.3906 20.8598C30.7368 20.8598 31.8281 19.7685 31.8281 18.4223C31.8281 17.0761 30.7368 15.9848 29.3906 15.9848C29.1927 15.9848 29.0003 16.0084 28.816 16.0529L21.9131 9.55602Z" fill="#4F7BF4"/>
<path d="M16.5467 28.1092C13.1983 23.8056 14.0235 21.5546 19.6431 17.8132C25.7811 21.9837 25.7449 24.2332 22.69 28.1725L16.5467 28.1092Z" fill="#4F7BF4" fill-opacity="0.5"/>
<path d="M16.5962 28.1725C13.1903 23.8276 13.996 21.5729 19.6431 17.8132C25.7811 21.9837 25.7449 24.2332 22.69 28.1725L16.5467 28.1092" stroke="#4F7BF4" stroke-opacity="0.5" stroke-width="1.21875" stroke-linecap="round"/>
<path d="M15.9844 28.1725H23.2969V31.8287C23.2969 32.5018 22.7512 33.0475 22.0781 33.0475H17.2031C16.53 33.0475 15.9844 32.5018 15.9844 31.8287V28.1725Z" fill="#4F7BF4"/>
</svg>
