<svg width="65" height="38" viewBox="0 0 65 38" fill="none" xmlns="http://www.w3.org/2000/svg">
<g clip-path="url(#clip0_92_998)">
<path d="M41.5514 6.72604L42.8035 0.734863H6.03115L0 29.5398H30.7459L29.053 37.265H58.5045L65 6.72604H41.5514Z" fill="#02262B"/>
<path d="M12.5317 25.8623C11.6982 25.8623 10.9105 25.7259 10.1698 25.4519C9.42914 25.1792 8.78253 24.7759 8.23114 24.2434C7.67976 23.7108 7.24476 23.0559 6.92498 22.2777C6.6052 21.4994 6.44531 20.6059 6.44531 19.596C6.44531 18.2157 6.63695 16.9578 7.02139 15.8233C7.40583 14.6888 7.94075 13.7165 8.62616 12.9053C9.31158 12.0952 10.1334 11.4674 11.0927 11.023C12.0509 10.5786 13.1007 10.3564 14.24 10.3564C15.0088 10.3564 15.7377 10.4905 16.429 10.7597C17.1191 11.0289 17.7234 11.4192 18.2419 11.9342C18.7604 12.4479 19.173 13.0805 19.4787 13.8305C19.7844 14.5806 19.9372 15.4424 19.9372 16.4146C19.9372 16.5628 19.9325 16.7368 19.9231 16.9355C19.9137 17.1353 19.8996 17.3387 19.8808 17.5468C19.862 17.7549 19.8432 17.9595 19.8255 18.1581C19.8067 18.3568 19.7844 18.5261 19.7562 18.6648H8.96005C8.95065 18.7953 8.94359 18.92 8.93889 19.0399C8.93419 19.161 8.93184 19.2856 8.93184 19.4149C8.93184 20.1838 9.04353 20.8386 9.26573 21.3806C9.48793 21.9226 9.77714 22.3647 10.1345 22.7079C10.4908 23.0512 10.8917 23.2981 11.3361 23.451C11.7805 23.6038 12.2296 23.6802 12.6834 23.6802C13.6745 23.6802 14.4716 23.5086 15.0735 23.1665C15.6754 22.8243 16.1339 22.3611 16.449 21.7768H18.992C18.8344 22.3517 18.5746 22.889 18.2137 23.3887C17.8528 23.8883 17.3966 24.3221 16.8452 24.6878C16.2938 25.0534 15.6543 25.3414 14.9277 25.5495C14.2012 25.7576 13.4017 25.8623 12.5317 25.8623ZM17.4084 16.7332C17.4178 16.6874 17.4248 16.6016 17.4295 16.4758C17.4342 16.3511 17.4366 16.2277 17.4366 16.1078C17.4366 15.6164 17.3649 15.1508 17.2214 14.7111C17.078 14.2714 16.8629 13.8846 16.5748 13.5507C16.288 13.2168 15.9306 12.9535 15.505 12.7583C15.0782 12.5643 14.5832 12.4668 14.0178 12.4668C13.4429 12.4668 12.9056 12.569 12.4059 12.7724C11.9051 12.9758 11.4513 13.2662 11.0445 13.6412C10.6365 14.0163 10.285 14.4654 9.98876 14.9886C9.69249 15.5117 9.45618 16.0937 9.27983 16.7321H17.4084V16.7332Z" fill="white"/>
<path d="M26.7515 25.8622C26.0015 25.8622 25.2972 25.7212 24.6389 25.4378C23.9805 25.1557 23.4044 24.7501 22.9095 24.2222C22.4133 23.6943 22.0218 23.0548 21.735 22.3047C21.4481 21.5546 21.3047 20.7164 21.3047 19.79C21.3047 18.8918 21.3952 18.0323 21.5751 17.2129C21.755 16.3935 22.0124 15.634 22.3463 14.9345C22.6802 14.235 23.0799 13.6024 23.5479 13.0381C24.0158 12.4726 24.5342 11.9918 25.1044 11.5932C25.6746 11.1947 26.2895 10.889 26.9526 10.6762C27.6145 10.4634 28.3069 10.3564 29.03 10.3564C29.5672 10.3564 30.0787 10.4305 30.5654 10.5786C31.0521 10.7268 31.4918 10.9325 31.8856 11.197C32.2795 11.4616 32.6169 11.7802 32.9002 12.1552C33.1824 12.5302 33.3893 12.9405 33.5186 13.3849H33.7408L35.589 4.67212H38.0202L33.5739 25.5989H31.2672L31.6975 23.5568H31.4753C30.9287 24.2704 30.2432 24.8324 29.4191 25.245C28.595 25.6553 27.705 25.8622 26.7515 25.8622ZM27.5157 23.7084C28.294 23.7084 29.0135 23.5262 29.6766 23.1594C30.3385 22.7938 30.9157 22.2929 31.406 21.6593C31.8974 21.0244 32.2818 20.279 32.5593 19.422C32.8368 18.5649 32.9767 17.6408 32.9767 16.6498C32.9767 16.0102 32.8885 15.4365 32.7121 14.9262C32.5358 14.4172 32.2854 13.9834 31.9621 13.6271C31.6376 13.2709 31.2437 12.9946 30.7805 12.8006C30.3173 12.6055 29.7941 12.5091 29.2098 12.5091C28.441 12.5091 27.7273 12.6807 27.0701 13.0228C26.4118 13.3661 25.8427 13.8423 25.3607 14.4536C24.8787 15.065 24.499 15.7951 24.2215 16.6415C23.944 17.488 23.8041 18.418 23.8041 19.4279C23.8041 20.058 23.8947 20.6364 24.0757 21.1643C24.2568 21.6922 24.5084 22.1436 24.8328 22.5187C25.1573 22.8937 25.5465 23.1853 26.0003 23.3945C26.4541 23.6038 26.9596 23.7084 27.5157 23.7084Z" fill="white"/>
<path d="M59.8269 10.6635H54.4036L48.4876 17.9878H48.1961L45.0676 10.6635H39.582L44.2847 21.302L34.1328 33.3279H39.4832L45.9988 25.6026H46.4385L49.9584 33.3279H55.3418L50.1359 21.8346L59.8269 10.6635Z" fill="white"/>
</g>
<defs>
<clipPath id="clip0_92_998">
<rect width="65" height="36.5302" fill="white" transform="translate(0 0.734863)"/>
</clipPath>
</defs>
</svg>
