<svg width="25" height="24" viewBox="0 0 25 24" fill="none" xmlns="http://www.w3.org/2000/svg">
<path d="M12.4987 16.33C10.0091 16.33 7.98828 14.39 7.98828 12C7.98828 9.61004 10.0091 7.67004 12.4987 7.67004C14.9883 7.67004 17.0091 9.61004 17.0091 12C17.0091 14.39 14.9883 16.33 12.4987 16.33ZM12.4987 9.17004C10.8737 9.17004 9.55078 10.44 9.55078 12C9.55078 13.56 10.8737 14.83 12.4987 14.83C14.1237 14.83 15.4466 13.56 15.4466 12C15.4466 10.44 14.1237 9.17004 12.4987 9.17004Z" fill="#B5B5B5"/>
<path d="M12.5 21.02C8.58333 21.02 4.88542 18.82 2.34375 15C1.23958 13.35 1.23958 10.66 2.34375 8.99998C4.89583 5.17998 8.59375 2.97998 12.5 2.97998C16.4063 2.97998 20.1042 5.17998 22.6458 8.99998C23.75 10.65 23.75 13.34 22.6458 15C20.1042 18.82 16.4063 21.02 12.5 21.02ZM12.5 4.47998C9.13542 4.47998 5.91667 6.41998 3.66667 9.80998C2.88542 10.98 2.88542 13.02 3.66667 14.19C5.91667 17.58 9.13542 19.52 12.5 19.52C15.8646 19.52 19.0833 17.58 21.3333 14.19C22.1146 13.02 22.1146 10.98 21.3333 9.80998C19.0833 6.41998 15.8646 4.47998 12.5 4.47998Z" fill="#B5B5B5"/>
</svg>
