<svg width="46" height="46" viewBox="0 0 46 46" fill="none" xmlns="http://www.w3.org/2000/svg">
<g clip-path="url(#clip0_92_959)">
<mask id="mask0_92_959" style="mask-type:luminance" maskUnits="userSpaceOnUse" x="0" y="0" width="46" height="46">
<path d="M45.5 0.5H0.5V45.5H45.5V0.5Z" fill="white"/>
</mask>
<g mask="url(#mask0_92_959)">
<path fill-rule="evenodd" clip-rule="evenodd" d="M29.8625 0.5C17.2625 0.5 28.625 0.5 16.025 0.5C3.5375 0.5 0.5 3.5375 0.5 16.1375C0.5 23.225 0.5 17.375 0.5 29.975C0.5 42.4625 3.5375 45.5 16.1375 45.5C28.7375 45.5 17.375 45.5 29.975 45.5C42.575 45.5 45.5 42.4625 45.5 29.8625C45.5 17.2625 45.5 28.625 45.5 16.025C45.5 3.425 42.4625 0.5 29.8625 0.5Z" fill="#3D3BFF"/>
<path d="M30.125 28.0527C30.125 31.6449 27.2079 34.25 22.5744 34.25C19.8876 34.177 17.3415 33.0563 15.5 31.1363L17.0496 29.4556C18.5 30.8099 20.2066 32.1261 22.5437 32.1261C25.1397 32.1261 27.9386 30.6984 27.9386 28.135C27.9386 26.0058 26.213 24.617 22.587 23.5219C18.455 22.2835 16.356 20.6028 16.356 17.4431C16.356 14.3161 19.0548 11.75 22.9 11.75C25.772 11.75 27.5687 12.9504 29.3177 14.4842L27.7942 16.1428C26.2609 14.8106 24.7996 13.9075 23.0064 13.9075C20.7821 13.9075 18.5866 15.314 18.5866 17.3387C18.5866 19.1734 19.6618 20.3419 23.4574 21.4812C26.9338 22.5312 30.125 24.1579 30.125 28.0518V28.0527Z" fill="white"/>
</g>
</g>
<defs>
<clipPath id="clip0_92_959">
<rect width="45" height="45" fill="white" transform="translate(0.5 0.5)"/>
</clipPath>
</defs>
</svg>
